<mxfile host="app.diagrams.net" modified="2021-05-01T20:00:49.506Z" agent="5.0 (Windows NT 10.0; Win64; x64) AppleWebKit/537.36 (KHTML, like Gecko) Chrome/90.0.4430.93 Safari/537.36" etag="WjR6GO6qPZz41R7g78U3" version="14.2.9" type="github">
  <diagram name="Page-1" id="e7e014a7-5840-1c2e-5031-d8a46d1fe8dd">
    <mxGraphModel dx="868" dy="482" grid="1" gridSize="10" guides="1" tooltips="1" connect="1" arrows="1" fold="1" page="1" pageScale="1" pageWidth="1169" pageHeight="826" background="#ffffff" math="0" shadow="0">
      <root>
        <mxCell id="0" />
        <mxCell id="1" parent="0" />
        <mxCell id="ztxinekurPmhQzRkFN6x-64" value="" style="edgeStyle=orthogonalEdgeStyle;html=1;verticalAlign=bottom;endArrow=open;endSize=8;entryX=0.5;entryY=0;entryDx=0;entryDy=0;strokeColor=#0A0A0A;" edge="1" parent="1" target="ztxinekurPmhQzRkFN6x-67">
          <mxGeometry relative="1" as="geometry">
            <mxPoint x="455" y="610" as="targetPoint" />
            <mxPoint x="455" y="510" as="sourcePoint" />
          </mxGeometry>
        </mxCell>
        <mxCell id="ztxinekurPmhQzRkFN6x-41" value="" style="ellipse;shape=startState;fillColor=#000000;strokeColor=#ff0000;" vertex="1" parent="1">
          <mxGeometry x="440" y="40" width="30" height="30" as="geometry" />
        </mxCell>
        <mxCell id="ztxinekurPmhQzRkFN6x-42" value="" style="edgeStyle=elbowEdgeStyle;elbow=horizontal;verticalAlign=bottom;endArrow=open;endSize=8;endFill=1;rounded=0;entryX=0.1;entryY=0.513;entryDx=0;entryDy=0;entryPerimeter=0;strokeColor=#0A0A0A;" edge="1" parent="1" source="ztxinekurPmhQzRkFN6x-41" target="ztxinekurPmhQzRkFN6x-49">
          <mxGeometry x="275.5" y="-88" as="geometry">
            <mxPoint x="455" y="100" as="targetPoint" />
          </mxGeometry>
        </mxCell>
        <mxCell id="ztxinekurPmhQzRkFN6x-49" value="" style="html=1;points=[];perimeter=orthogonalPerimeter;rotation=90;fillColor=#0A0A0A;" vertex="1" parent="1">
          <mxGeometry x="450" y="10" width="10" height="180" as="geometry" />
        </mxCell>
        <mxCell id="ztxinekurPmhQzRkFN6x-51" value="Login Successfully" style="rounded=1;whiteSpace=wrap;html=1;arcSize=40;fontColor=#000000;fillColor=#ffffc0;strokeColor=#ff0000;" vertex="1" parent="1">
          <mxGeometry x="395" y="150" width="120" height="40" as="geometry" />
        </mxCell>
        <mxCell id="ztxinekurPmhQzRkFN6x-52" value="" style="edgeStyle=orthogonalEdgeStyle;html=1;verticalAlign=bottom;endArrow=open;endSize=8;exitX=0.5;exitY=1;exitDx=0;exitDy=0;entryX=0.5;entryY=0;entryDx=0;entryDy=0;strokeColor=#0A0A0A;" edge="1" source="ztxinekurPmhQzRkFN6x-51" parent="1" target="ztxinekurPmhQzRkFN6x-54">
          <mxGeometry relative="1" as="geometry">
            <mxPoint x="260" y="260" as="targetPoint" />
          </mxGeometry>
        </mxCell>
        <mxCell id="ztxinekurPmhQzRkFN6x-53" value="" style="edgeStyle=orthogonalEdgeStyle;html=1;verticalAlign=bottom;endArrow=open;endSize=8;exitX=1.1;exitY=0.5;exitDx=0;exitDy=0;exitPerimeter=0;strokeColor=#0A0A0A;" edge="1" parent="1" source="ztxinekurPmhQzRkFN6x-49" target="ztxinekurPmhQzRkFN6x-51">
          <mxGeometry relative="1" as="geometry">
            <mxPoint x="270" y="270" as="targetPoint" />
            <mxPoint x="270" y="210" as="sourcePoint" />
          </mxGeometry>
        </mxCell>
        <mxCell id="ztxinekurPmhQzRkFN6x-54" value="View Profile" style="rounded=1;whiteSpace=wrap;html=1;arcSize=40;fontColor=#000000;fillColor=#ffffc0;strokeColor=#ff0000;" vertex="1" parent="1">
          <mxGeometry x="395" y="230" width="120" height="40" as="geometry" />
        </mxCell>
        <mxCell id="ztxinekurPmhQzRkFN6x-55" value="" style="edgeStyle=orthogonalEdgeStyle;html=1;verticalAlign=bottom;endArrow=open;endSize=8;strokeColor=#0A0A0A;" edge="1" source="ztxinekurPmhQzRkFN6x-54" parent="1" target="ztxinekurPmhQzRkFN6x-56">
          <mxGeometry relative="1" as="geometry">
            <mxPoint x="455" y="375" as="targetPoint" />
          </mxGeometry>
        </mxCell>
        <mxCell id="ztxinekurPmhQzRkFN6x-56" value="Update Profile" style="rounded=1;whiteSpace=wrap;html=1;arcSize=40;fontColor=#000000;fillColor=#ffffc0;strokeColor=#ff0000;" vertex="1" parent="1">
          <mxGeometry x="395" y="310" width="120" height="40" as="geometry" />
        </mxCell>
        <mxCell id="ztxinekurPmhQzRkFN6x-57" value="" style="edgeStyle=orthogonalEdgeStyle;html=1;verticalAlign=bottom;endArrow=open;endSize=8;entryX=0.5;entryY=0;entryDx=0;entryDy=0;strokeColor=#0A0A0A;" edge="1" source="ztxinekurPmhQzRkFN6x-56" parent="1" target="ztxinekurPmhQzRkFN6x-60">
          <mxGeometry relative="1" as="geometry">
            <mxPoint x="455" y="400" as="targetPoint" />
          </mxGeometry>
        </mxCell>
        <mxCell id="ztxinekurPmhQzRkFN6x-60" value="" style="rhombus;whiteSpace=wrap;html=1;fillColor=#ffffc0;strokeColor=#ff0000;" vertex="1" parent="1">
          <mxGeometry x="427.5" y="383" width="55" height="30" as="geometry" />
        </mxCell>
        <mxCell id="ztxinekurPmhQzRkFN6x-61" value="no" style="edgeStyle=orthogonalEdgeStyle;html=1;align=left;verticalAlign=bottom;endArrow=open;endSize=8;entryX=0.5;entryY=0;entryDx=0;entryDy=0;strokeColor=#0A0A0A;" edge="1" source="ztxinekurPmhQzRkFN6x-60" parent="1" target="ztxinekurPmhQzRkFN6x-65">
          <mxGeometry x="-0.4511" y="8" relative="1" as="geometry">
            <mxPoint x="620" y="480" as="targetPoint" />
            <mxPoint x="1" as="offset" />
          </mxGeometry>
        </mxCell>
        <mxCell id="ztxinekurPmhQzRkFN6x-62" value="yes" style="edgeStyle=orthogonalEdgeStyle;html=1;align=left;verticalAlign=top;endArrow=open;endSize=8;entryX=0.5;entryY=0;entryDx=0;entryDy=0;strokeColor=#0A0A0A;" edge="1" source="ztxinekurPmhQzRkFN6x-60" parent="1" target="ztxinekurPmhQzRkFN6x-63">
          <mxGeometry x="-1" y="5" relative="1" as="geometry">
            <mxPoint x="455" y="480" as="targetPoint" />
            <mxPoint as="offset" />
          </mxGeometry>
        </mxCell>
        <mxCell id="ztxinekurPmhQzRkFN6x-63" value="Confirmation&lt;br&gt;new details" style="rounded=1;whiteSpace=wrap;html=1;arcSize=40;fontColor=#000000;fillColor=#ffffc0;strokeColor=#ff0000;" vertex="1" parent="1">
          <mxGeometry x="395" y="470" width="120" height="40" as="geometry" />
        </mxCell>
        <mxCell id="ztxinekurPmhQzRkFN6x-65" value="Cancellation&lt;br&gt;Update" style="rounded=1;whiteSpace=wrap;html=1;arcSize=40;fontColor=#000000;fillColor=#ffffc0;strokeColor=#ff0000;" vertex="1" parent="1">
          <mxGeometry x="560" y="470" width="120" height="40" as="geometry" />
        </mxCell>
        <mxCell id="ztxinekurPmhQzRkFN6x-66" value="" style="edgeStyle=orthogonalEdgeStyle;html=1;verticalAlign=bottom;endArrow=open;endSize=8;exitX=1;exitY=0.5;exitDx=0;exitDy=0;entryX=1;entryY=0.5;entryDx=0;entryDy=0;strokeColor=#0A0A0A;" edge="1" source="ztxinekurPmhQzRkFN6x-65" parent="1" target="ztxinekurPmhQzRkFN6x-54">
          <mxGeometry relative="1" as="geometry">
            <mxPoint x="520" y="250" as="targetPoint" />
          </mxGeometry>
        </mxCell>
        <mxCell id="ztxinekurPmhQzRkFN6x-67" value="Record details&lt;br&gt;Updated" style="rounded=1;whiteSpace=wrap;html=1;arcSize=40;fontColor=#000000;fillColor=#ffffc0;strokeColor=#ff0000;" vertex="1" parent="1">
          <mxGeometry x="395" y="570" width="120" height="40" as="geometry" />
        </mxCell>
        <mxCell id="ztxinekurPmhQzRkFN6x-68" value="" style="edgeStyle=orthogonalEdgeStyle;html=1;verticalAlign=bottom;endArrow=open;endSize=8;entryX=0.5;entryY=0;entryDx=0;entryDy=0;strokeColor=#0A0A0A;" edge="1" source="ztxinekurPmhQzRkFN6x-67" parent="1" target="ztxinekurPmhQzRkFN6x-69">
          <mxGeometry relative="1" as="geometry">
            <mxPoint x="455" y="675" as="targetPoint" />
          </mxGeometry>
        </mxCell>
        <mxCell id="ztxinekurPmhQzRkFN6x-69" value="" style="ellipse;html=1;shape=endState;fillColor=#000000;strokeColor=#ff0000;" vertex="1" parent="1">
          <mxGeometry x="440" y="640" width="30" height="30" as="geometry" />
        </mxCell>
        <mxCell id="ztxinekurPmhQzRkFN6x-71" value="[updated new infomation]" style="text;html=1;strokeColor=none;fillColor=none;align=center;verticalAlign=middle;whiteSpace=wrap;rounded=0;" vertex="1" parent="1">
          <mxGeometry x="310" y="530" width="140" height="20" as="geometry" />
        </mxCell>
      </root>
    </mxGraphModel>
  </diagram>
</mxfile>
